/* XPM */
static char * soil_xpm[] = {
"64 64 543 2",
"  	c #F7CC0B",
". 	c #F7CC0A",
"+ 	c #F7CE0C",
"@ 	c #F7CE0E",
"# 	c #F7CF0E",
"$ 	c #F7CE0D",
"% 	c #F7CD0C",
"& 	c #F7CD0B",
"* 	c #F7CA0C",
"= 	c #F7C90E",
"- 	c #F7C80F",
"; 	c #F7C810",
"> 	c #F7C911",
", 	c #F7CA14",
"' 	c #F7CC19",
") 	c #F7CD24",
"! 	c #F6C90A",
"~ 	c #F6C70A",
"{ 	c #F7CB0A",
"] 	c #F6CB0A",
"^ 	c #F7D010",
"/ 	c #F7D111",
"( 	c #F7D110",
"_ 	c #F7CB0B",
": 	c #F7C90D",
"< 	c #F7C60F",
"[ 	c #F7C411",
"} 	c #F7C710",
"| 	c #F7C90F",
"1 	c #F7CB11",
"2 	c #F7CC18",
"3 	c #F4C30A",
"4 	c #F1B909",
"5 	c #F4C40A",
"6 	c #F6CA0A",
"7 	c #F5C90B",
"8 	c #F6CA0B",
"9 	c #F6CB0B",
"0 	c #F7CF0F",
"a 	c #F7D312",
"b 	c #F7D515",
"c 	c #F7D413",
"d 	c #F6C80A",
"e 	c #F5C60A",
"f 	c #F7CA0B",
"g 	c #F7C70E",
"h 	c #F7C311",
"i 	c #F7C212",
"j 	c #F7C80E",
"k 	c #F7CA0E",
"l 	c #F7CC11",
"m 	c #F3C10A",
"n 	c #EFB309",
"o 	c #F3C20A",
"p 	c #F6C90B",
"q 	c #F4C70B",
"r 	c #F4C60C",
"s 	c #F5C90D",
"t 	c #F5CB0E",
"u 	c #F6CD0D",
"v 	c #F7D00F",
"w 	c #F7D514",
"x 	c #F7D616",
"y 	c #F7D614",
"z 	c #F7D313",
"A 	c #F3C00A",
"B 	c #F1B809",
"C 	c #F5C50A",
"D 	c #F7C90C",
"E 	c #F5C20D",
"F 	c #F4B910",
"G 	c #F6BF12",
"H 	c #F7CA0D",
"I 	c #F7CB0D",
"J 	c #F5C80A",
"K 	c #F2C30A",
"L 	c #F2BD0A",
"M 	c #F3C30A",
"N 	c #F6C70C",
"O 	c #F6C70E",
"P 	c #F7C90A",
"Q 	c #F4C50A",
"R 	c #F2C40C",
"S 	c #F4C90F",
"T 	c #F4CC11",
"U 	c #F6D013",
"V 	c #F6D111",
"W 	c #F7CB0C",
"X 	c #F7CA0A",
"Y 	c #F2BD09",
"Z 	c #F3BD0C",
"` 	c #F1B20E",
" .	c #F5BC10",
"..	c #F5C70A",
"+.	c #F3C40A",
"@.	c #F4C50B",
"#.	c #F5C50D",
"$.	c #F6C510",
"%.	c #F5C40B",
"&.	c #F1BA0A",
"*.	c #F2C00C",
"=.	c #F5CD13",
"-.	c #F6D517",
";.	c #F6DA19",
">.	c #F7CF0D",
",.	c #F6C90D",
"'.	c #F5C90A",
").	c #F5C50C",
"!.	c #F4BF0D",
"~.	c #F6C60E",
"{.	c #F4C70A",
"].	c #F5C50B",
"^.	c #F7C213",
"/.	c #F7C312",
"(.	c #F5C40C",
"_.	c #F1B80B",
":.	c #F2C20E",
"<.	c #F5D215",
"[.	c #F7DB1A",
"}.	c #F5C60C",
"|.	c #F1B70A",
"1.	c #F2BB09",
"2.	c #F1BB09",
"3.	c #F6C90C",
"4.	c #F4C50C",
"5.	c #F4C70F",
"6.	c #F5D115",
"7.	c #F7DA1A",
"8.	c #F7CC0D",
"9.	c #F4C10B",
"0.	c #F5C60B",
"a.	c #F5C40A",
"b.	c #F7C610",
"c.	c #F7C412",
"d.	c #F6C80B",
"e.	c #F3C00C",
"f.	c #F2C411",
"g.	c #F6D216",
"h.	c #F7D918",
"i.	c #F1BB0A",
"j.	c #F7C70F",
"k.	c #F3BE0A",
"l.	c #F0B509",
"m.	c #F3BE0B",
"n.	c #F3BF0D",
"o.	c #F6CD10",
"p.	c #F7D212",
"q.	c #F2C00A",
"r.	c #EEB309",
"s.	c #F4C60A",
"t.	c #F7C014",
"u.	c #F7C80D",
"v.	c #F3BF0A",
"w.	c #F7C113",
"x.	c #F6C80C",
"y.	c #F7CD0D",
"z.	c #F7C510",
"A.	c #F7BE15",
"B.	c #F7BD15",
"C.	c #F7C413",
"D.	c #F7C517",
"E.	c #F7CB12",
"F.	c #F6CA0C",
"G.	c #F4C509",
"H.	c #F7BF14",
"I.	c #F7CD14",
"J.	c #F6D220",
"K.	c #F6D11E",
"L.	c #F6CC12",
"M.	c #F6CC0E",
"N.	c #F7CE12",
"O.	c #F6D320",
"P.	c #F6CD12",
"Q.	c #F7D018",
"R.	c #F6D21D",
"S.	c #F1B509",
"T.	c #F7CC0C",
"U.	c #F7CE14",
"V.	c #F7CF16",
"W.	c #F7CC10",
"X.	c #F7CD12",
"Y.	c #F6D11B",
"Z.	c #F5D11A",
"`.	c #F7CC0E",
" +	c #F5C010",
".+	c #F4C40C",
"++	c #F7CD0F",
"@+	c #F6D21F",
"#+	c #F6D627",
"$+	c #F4C10A",
"%+	c #F7CD0E",
"&+	c #F6D31F",
"*+	c #F3DC2E",
"=+	c #F1DC2F",
"-+	c #F3CF1C",
";+	c #F5C40E",
">+	c #F5BB14",
",+	c #F6BE14",
"'+	c #F7CF15",
")+	c #F6D11C",
"!+	c #F7CD10",
"~+	c #F4CB0E",
"{+	c #F4D11F",
"]+	c #F4DC30",
"^+	c #F2DD32",
"/+	c #F4CE1D",
"(+	c #F7CE15",
"_+	c #F6D01D",
":+	c #F2C80A",
"<+	c #F2CA11",
"[+	c #F5D01E",
"}+	c #F3CF20",
"|+	c #F7CE11",
"1+	c #F4BF0A",
"2+	c #F7BB17",
"3+	c #F7B819",
"4+	c #F5CA0A",
"5+	c #F2BE0A",
"6+	c #F1B409",
"7+	c #F5C30A",
"8+	c #F7D019",
"9+	c #F6D424",
"0+	c #F7CF17",
"a+	c #F6C70B",
"b+	c #F7C511",
"c+	c #F6B41A",
"d+	c #F6B81B",
"e+	c #F7B81B",
"f+	c #F3C50A",
"g+	c #F4CC0A",
"h+	c #F7CF18",
"i+	c #F5D527",
"j+	c #F3BD0A",
"k+	c #F3BC0C",
"l+	c #F6C210",
"m+	c #F7BA17",
"n+	c #F5B81D",
"o+	c #F2C421",
"p+	c #F5C022",
"q+	c #F7C316",
"r+	c #ECBA09",
"s+	c #EEC809",
"t+	c #F3CC0A",
"u+	c #F0B409",
"v+	c #F7CD11",
"w+	c #F6CB0F",
"x+	c #F6CE19",
"y+	c #F6CA0F",
"z+	c #F3BB0B",
"A+	c #F3B80E",
"B+	c #F6BD13",
"C+	c #F7BF15",
"D+	c #F6C80D",
"E+	c #F6C50F",
"F+	c #F5C01D",
"G+	c #F2CC27",
"H+	c #F5CC27",
"I+	c #F7C719",
"J+	c #F1BA09",
"K+	c #F1BE09",
"L+	c #F2CC0A",
"M+	c #F5CB0A",
"N+	c #F6D21E",
"O+	c #F6C60C",
"P+	c #F6C20F",
"Q+	c #F7C013",
"R+	c #F6C213",
"S+	c #F6C40F",
"T+	c #F4C60B",
"U+	c #F5C60D",
"V+	c #F5C314",
"W+	c #F4C91C",
"X+	c #F6CA1C",
"Y+	c #F6C811",
"Z+	c #F4C20A",
"`+	c #F4C40B",
" @	c #F3C10C",
".@	c #F4C20D",
"+@	c #F5C50E",
"@@	c #F5C80B",
"#@	c #F1C709",
"$@	c #F3C90A",
"%@	c #F6C80E",
"&@	c #F2C209",
"*@	c #F2C009",
"=@	c #F1C00A",
"-@	c #F2C00B",
";@	c #F2C809",
">@	c #EFB209",
",@	c #F4C00A",
"'@	c #F6C60B",
")@	c #F6C30D",
"!@	c #F3C309",
"~@	c #F1BF09",
"{@	c #F0B309",
"]@	c #F2BC09",
"^@	c #F5C110",
"/@	c #F5C70B",
"(@	c #F1C009",
"_@	c #F6CE17",
":@	c #F2BF0A",
"<@	c #F2B809",
"[@	c #F6BC15",
"}@	c #F5C011",
"|@	c #F6CC0F",
"1@	c #F6D11F",
"2@	c #F5D426",
"3@	c #F6CD18",
"4@	c #F6D729",
"5@	c #F7D11A",
"6@	c #F6C910",
"7@	c #F6CD16",
"8@	c #F5CE18",
"9@	c #F5D022",
"0@	c #F4C813",
"a@	c #F3C209",
"b@	c #F1BC0A",
"c@	c #F7CE16",
"d@	c #F6D423",
"e@	c #F5C80E",
"f@	c #F5CA16",
"g@	c #F5CB14",
"h@	c #F5CA0D",
"i@	c #F4C510",
"j@	c #F2C20B",
"k@	c #F5CA14",
"l@	c #F5D123",
"m@	c #F6CC14",
"n@	c #F2C109",
"o@	c #F2C20A",
"p@	c #F5CB0B",
"q@	c #F4C80B",
"r@	c #F7CE10",
"s@	c #F5C910",
"t@	c #F6CF1D",
"u@	c #F6CB10",
"v@	c #F7CE13",
"w@	c #F2C70F",
"x@	c #F0C70E",
"y@	c #F1C50C",
"z@	c #F7D211",
"A@	c #F6D422",
"B@	c #F7D01A",
"C@	c #F6C90E",
"D@	c #F1C511",
"E@	c #EDC710",
"F@	c #EFC70D",
"G@	c #F2C50A",
"H@	c #F7D113",
"I@	c #F7CC0F",
"J@	c #F7CB18",
"K@	c #F7CC1F",
"L@	c #F6D426",
"M@	c #F7D11C",
"N@	c #F5C70F",
"O@	c #F2C80E",
"P@	c #F3CB0A",
"Q@	c #F7C50F",
"R@	c #F7BC16",
"S@	c #F1B709",
"T@	c #F7C916",
"U@	c #F7CD15",
"V@	c #F6CC26",
"W@	c #F6C828",
"X@	c #F7CC20",
"Y@	c #F6CC0A",
"Z@	c #F7C811",
"`@	c #F7BE18",
" #	c #F7C414",
".#	c #F6CE1F",
"+#	c #F6CA21",
"@#	c #F6C50D",
"##	c #F3BD0B",
"$#	c #F7CB0E",
"%#	c #F7C512",
"&#	c #F3BA0D",
"*#	c #F7CA16",
"=#	c #F7D11B",
"-#	c #F1B609",
";#	c #F6C50C",
">#	c #F6D92B",
",#	c #F7CD13",
"'#	c #F7CF1A",
")#	c #F7CE18",
"!#	c #F3C409",
"~#	c #F4C409",
"{#	c #F7BB18",
"]#	c #F7C81A",
"^#	c #F6D323",
"/#	c #F6D72A",
"(#	c #F6D829",
"_#	c #F6D625",
":#	c #F7CF14",
"<#	c #F7C90B",
"[#	c #F7CD1A",
"}#	c #F6D228",
"|#	c #F6C70D",
"1#	c #F7C410",
"2#	c #F7C910",
"3#	c #F7C31E",
"4#	c #F6D327",
"5#	c #F6DA2E",
"6#	c #F6D82B",
"7#	c #F6D728",
"8#	c #F7D21D",
"9#	c #F6C40D",
"0#	c #F2B70C",
"a#	c #F2B80C",
"b#	c #F7C618",
"c#	c #F6C826",
"d#	c #F7CB1B",
"e#	c #F5BD10",
"f#	c #F6D727",
"g#	c #F6D325",
"h#	c #F6D42A",
"i#	c #F7CF1B",
"j#	c #F6C310",
"k#	c #F4B810",
"l#	c #F4BB0E",
"m#	c #F6C60D",
"n#	c #F7C217",
"o#	c #F7CA0F",
"p#	c #F7C114",
"q#	c #F7C116",
"r#	c #F1AF0F",
"s#	c #F6CE22",
"t#	c #F6D130",
"u#	c #F6CF28",
"v#	c #F7CE17",
"w#	c #F6C410",
"x#	c #F7CA13",
"y#	c #F7C715",
"z#	c #F7C91E",
"A#	c #F6C61D",
"B#	c #F2B912",
"C#	c #F5C10C",
"D#	c #F7CB13",
"E#	c #F6CD28",
"F#	c #F6D32A",
"G#	c #F7CD1B",
"H#	c #F6D529",
"I#	c #F6D226",
"J#	c #F6CF22",
"K#	c #F6CB0C",
"L#	c #F7CC17",
"M#	c #F6D124",
"N#	c #F6C915",
"O#	c #F7BE14",
"P#	c #F6C40E",
"Q#	c #F7D222",
"R#	c #F5D62D",
"S#	c #F6D22E",
"T#	c #F6D02C",
"U#	c #F6CF20",
"V#	c #F7CE1A",
"W#	c #F6CB0E",
"X#	c #F5C90C",
"Y#	c #F5B814",
"Z#	c #F2B70D",
"`#	c #F4C40E",
" $	c #F7CA11",
".$	c #F6D223",
"+$	c #F5DA2F",
"@$	c #F6D82C",
"#$	c #F5CF2B",
"$$	c #F5C924",
"%$	c #F6CB16",
"&$	c #F6D01F",
"*$	c #F5D126",
"=$	c #F6CE18",
"-$	c #F6CE16",
";$	c #F5C10E",
">$	c #F4C414",
",$	c #F0B209",
"'$	c #F5D92C",
")$	c #F6D526",
"!$	c #F4C81C",
"~$	c #F2BB0E",
"{$	c #F4C718",
"]$	c #F1C321",
"^$	c #F4C613",
"/$	c #F7CF19",
"($	c #F6CA10",
"_$	c #F4C20C",
":$	c #F5C80D",
"<$	c #F2BD10",
"[$	c #F5C70C",
"}$	c #F7D615",
"|$	c #F7DA19",
"1$	c #F7D817",
"2$	c #F6C013",
"3$	c #EFAF09",
"4$	c #F7D716",
"5$	c #F7D91B",
"6$	c #F7D219",
"7$	c #F7CF13",
"8$	c #F7BD16",
"9$	c #F6C211",
"0$	c #F7C112",
"a$	c #F7D818",
"b$	c #F7C31B",
"c$	c #F7C616",
"d$	c #F1BF0A",
"e$	c #EFBB09",
"f$	c #F6C60F",
"g$	c #F6C411",
"h$	c #F6C50E",
"i$	c #F7C417",
"j$	c #EEB809",
"k$	c #EDB709",
"l$	c #EDB609",
"m$	c #F5C10D",
"n$	c #EDB70B",
"o$	c #EDBA13",
"p$	c #EEBC16",
"q$	c #F2C30E",
"r$	c #F1B60A",
"s$	c #F7CB10",
"t$	c #F7CC13",
"u$	c #F7CC1B",
"v$	c #F7C614",
"w$	c #F0BE0F",
"x$	c #EFC31E",
"y$	c #F2CD26",
"z$	c #F4CA18",
"A$	c #F2C10A",
"B$	c #F7CD17",
"C$	c #F7CE1D",
"D$	c #F6C720",
"E$	c #F3C918",
"F$	c #F4CF22",
"G$	c #F5CA13",
"H$	c #F0BE09",
"I$	c #F7CB17",
"J$	c #F6CE27",
"K$	c #F6BE1E",
"L$	c #F7BB16",
"M$	c #F6CA0D",
"N$	c #F0BD09",
"O$	c #F6BD17",
"P$	c #F7B818",
"Q$	c #F7BE16",
"R$	c #F6C014",
"  . . . . . . . . . . . . . . . . . . . . . . . . . . . . + @ # $ % & . . . . . . . . . . . . . . . . . .       * = - ; > , ' ) ",
". . . ! ~ { . . . . . . . { ] ] ] { . . . . . . . . . . & # ^ / ( # % & . . . . . . . . . . . . . . . . . .   _ : < [ [ } | 1 2 ",
". . ] 3 4 5 { { . . . . { 6 ! 7 8 9   . . . . . . . . & + 0 a b c / $   . . . . . . . . . . { d e { . . . .   f g h i i [ j k l ",
". ] 6 m n o p 8 * * _ _ { ! q r s t u %   . . . . . . . % v w x y z # % . . . . . . . . . . 6 A B C . . . .   D E F G i [ j H I ",
". ] J K L M N O j j : * P Q R S T U V 0 % . . . . . . . % v z w w a @ W { . . . . { { ] ] ] X C Y d . . . . _ p Z `  .h < : * _ ",
". 6 ..+.5 @.#.$.[ [ < : %.&.*.=.-.;.x / $ . . . . { { . & >./ c c ( ,.o ..{ . . ! 3 3 '.] ] ] 6 ! { . . . . . _ ).!.~.j : * _ . ",
". ] ! {.Q ].~.h ^./.[ j (._.:.<.[.[.[.z # & . { 6 6 6 ]   % >.0 0 $ }.|.A 6 . . ~ 1.2.e 6 6 ] ] { . . . . . . .   _ * * _   . . ",
". ] 6 6 ! 3.g [ i i [ j D 4.5.6.7.[.[.c # & . 6 d ~ d 6 ]   & % 8.W 3.9.0.{ . . { a.5 ! ! 6 6 ] . . . . . . . ] . _ _ _ _ . . . ",
"{ ..5 ! { f : b./.c.< : _ d.e.f.g.h.b / $ . { 6 3 i.o ..6 {   * = j.j.: * _ . . . ] ] ! ! ! 6 ] { . _ j j _ { 6 ! '.6 ] { . . . ",
"6 k.l.3 . { : < b.g : * _ d m.n.o.p.^ # & . { 6 q.r.i.s.6 { W g i t.i j.*   . . . { ] 6 ! 6 { . . . j t.t.u.] '.e Q J 6 ] . . . ",
"{ e v.! . . : w.w.j * _ . { ~ x.y.$ + & . . { 6 ..L o d ] { : z.A.B.w.z.: j * _ . . . { { { . . . . * C.D.E.F...s.G.Q ! ] . . . ",
". . . . . . : w.w.: . . . . . . . . . . . . . ] 6 6 ! 6 6 { : b.H.A.i < g w./.: . . { X { . . . . . . I.J.K.L...Q M 5 d ] . . . ",
". . . . . . _ j j _ . . . . . . . . . . . . . . 8.M.9 { . . * j [ w.[ j g w.w.: . . ~ A e { . . . . . N.O.J.P.! s.+.s.'.] . . . ",
". . . . . . . . . . . . . . . _ _ { {.J ..! . y.Q.R.N.. . . _ * u.j : * * j j _ . . a.S.v.6 { { . . . T.U.V.W.9 '.J '.6 { . . . ",
". . . . . . .   X.Y.Z.`.. 6 x. + +.+J '.J ! . ++@+#+Q.. . . . _ _ _ _ _ _ . . . . . 6 $+..X 6 6 { . . . y.Q.R.X.{ ] ] { . . . . ",
". _ . . . . . %+&+*+=+-+Q s.;+>+,+j . . . . . T.'+)+!+. . . . . . . . . . . . . . . . . . { 6 6 { . . . ++@+#+Q.. . . . . . . . ",
"_ * : : * _ ] ~+{+]+^+/+6 . _ < < _ . . . . . { X . . . . . . . . . . . . . { { . . . . . . { { . . . . T.(+_+!+. . . . . . . . ",
": < [ /.b.j 8 :+<+[+}+|+. . . . . . . . . . { C 1+d . . . . . . . . . . { { ! 6 f j j _ . ++U.y.. . . _ * * * * _ _ . . . . . . ",
"j.w.2+3+A.z.: 4+4+{ J . . . . . . . . . . { ! 5+6+7+. . . . { 6 . . . . { { ! 6 g t.t.u.. 8+9+0+. { a+N g < < j : _ . . . . . . ",
"b+2+c+d+e+^.: _ . . . . . . . . . . d f+g+] ! a.k.'.{ . . . ..A d . . . . . ] { * h h * . h+i+h+{ d j+k+l+t.t./.g F.9 { . . . . ",
"c.m+n+o+p+q+: _ . . . . 6 C e { . . o r+s+t+'.'.J 6 { . . . 3 u+3 . . y.N.v+T.. . W W . . w+x+y+] d z+A+B+C+H.t.$.D+8 ] { . .   ",
"E+H.F+G+H+I+: . . . . . ..J+J+... . ! K+L+M+'.'.J ! { { { d e v.! . . N.@+N+N.. . . . . . { ! ] { { O+P+Q+C+H.R+S+#.T+! 6 . .   ",
"U+l+V+W+X+Y+7 ] . . . { ! Z+Z+6 . . . . . { 6 '.! 6 ] . d k.v.d . . . N.O.O.N.. . . . . . . ] { . . * j b./.[ E+;+`+M e 6 {     ",
"@. @.@+@x.@@#@$@] . { ] 6 6 6 ] . . . . . { { ] { ] ~ 3 e j+j+d . . . T.U.U.T.. . . . . . . _ : * _ . * : j %@N ].+.&@Q 6 {     ",
"*@=@-@`+p 6 ;@4+. { ] ! ....'...a.6 . . . . . . { . $+>@,@'@)@x.] { . . . . . . . . . . . . : i /.: . . _ _ f p s.!@!@..6 { .   ",
"~@~@~@5 '.{ ] . { ! 6 ..s.s...A {@Z+. . . . . . . . ! ]@! g ,+^@/@] . . . . . . . . . . . . : w.w.: . . . { { ] ! ....'.] . . . ",
"+.(@o ..F.I._@`.e :@e ....s.J C <@... . . T.'+8+++. . . . j [@}@/@] . . . . . . { { . . . . _ j j _ { 6 6 ] { { ] 6 ] ] . . . . ",
"J s...! |@1@2@3@m n m '.J J 6 X ! { . . . ++O.4@5@. . . . _ < 6@7@U.T.. . . . ! 3 5 6 . ] { . . . ] 6 ! 4+6 ] { . . { . . . . . ",
"6 ! 6 ] W 8@9@0@a@b@..{ 6 6 { . . . { { 6 W c@O.v+. . . . . . U.d@d@U.& & & & a+]@]@~ 6 6 ] . . { 6 J e@f@g@F.] { . . . . . . . ",
". . . . 6 h@i@j@!@+.'.] { . . . . { 6 J ..! { . . . . . . . . !+R.R.|+& + $ %   ].C X 6 6 ] . . { 6 {.k@l@l@m@] ] . . . . . . . ",
". . . . 6 J M n@o@M '.{ . . . . . p@q@Q Q s.! { . . . . . . .   ++r@% $ v v # % & . . { { { . . ] ! ..s@t@t@u@] ] %+v@++  . . . ",
". . . . { ! ..+.M s.! ] . . . . F.w@x@y@+.+.N g _ . . . . . . { X   % 0 ( z@/ >.&   . . . . . . { 6 J d.y+y+8 { . V.A@B@y.. . . ",
". . . . . ] ! ! J ! 6 ] . . . . C@D@E@F@G@..S+A.j.. . . . . . d m /@8.v / H@/ @   . . . . . . . . 6 4+6 6 6 { I@J@K@L@M@%+. . . ",
". . . . . . ] { { ] ] . . . . . _ N@O@P@4+6 Q@R@< . . . . . . C S@m 9 # X.T@E.%   . . . . . . . . { ] ] ] { . U@V@W@X@v+  . . . ",
". . . . . . . . . _ j j _ . . . . . Y@] { . * z.* f a+! { . . 6 Z+..  + Z@`@ #I   . . . . . . . . . . . . . . l .#+#1 . . . . . ",
". . . . . . . . . j t.t.u.. . . . . . . . . _ H : @###k.d . . . . . . & $#%#= T.. . * : _ . . . . . { ~ C X .   ++++  . . . . . ",
". { { { . . . . . * h h * . . . . . . . . _ H g z.P+&#z+d . . { ] { . . . . . . . _ b+t.*#=#!+. . . 6 v.-#a.. . . . . . . . . . ",
"6 6 ! 6 { . . . . . W W . . . . . . . . . _ : z.[ [ P+;#f . { 6 ! ] . . . . . . . _ [ A..#>#R.. . . { a.1.d . . . . . . . . . . ",
"J ..Q ..! { . . . . . . X d 6 . . . . . . _ : < b+b.j * _ . . 6 6 ] . . . . . . . . * j.,#A@N.. . : < * ! { . . . . . . . . . . ",
"Q n@(@o@{.6 { _ _ . . . e 1.3 { . . . . . _ * j j.j.: _ . . . ] ] { . . . . . . . . . . . . . . . [ m+z.. . . . . . . . . . . . ",
"f+~@&@M 0.p D * * _ . . e B $+X . . . . . : z.: E.'#)#I.++  . . . . . . . . . . . . . . . . . . . j A.j . . . !+Q.|+  . . . . . ",
"..!#~#@.N g j.j.j * . . X C ! . . . . . . [ {#]#^#/#(#_#O.:#N.v+T.. . _ <#].'@f . . . . . . . . . _ : * _ . _ [#}#1@++. . . . . ",
"6 ! @@x.|#1#^.^.b.: _ . . . . { . . . . . 2#3#4#5#6#7#/#4@8#O.O.N.. _ * 9#0#a#;#_ . . . . . . . _ _ * : : * * b#c#d#T.. . . . . ",
"] ] 9 3.< t.H.B+e#~._ . . { 6 6 6 { . . . W.1@4@f#0+0+=#R.V.g#h#i#8._ : j#k#l#m#_ . . . . . . . _ H g < j H * b.n#o#. . . . . . ",
". { _ D j.p#q#>+r#k+p . . 6 J J J 6 . . . T.'+)+!+. . . . T.s#t#u#v#k j.[ j#w#x#h+v@I@W { . . . _ j < z.z.= _ _ * _ . . . . . . ",
". . . _ = y#z#A#B#C#f . { ! J J J ! { . * : _ . . . . . . . D#E#F#1@1 g z.z.< G#H#I#J#7@K#{ . . W = < < j.: _ . . . . . . . . . ",
". . . _ * L#M#M#N#f . . . 6 J ..J 6 . _ b+O#P#6 . . . . . . _ 1 _+'+I : j.b.L#Q#R#S#T#U#|@{ . . _ * u.j : * _ T.U.0+%+. . . . . ",
". . . . _ `.V#'#`.  _ : * F.W#X#6 { . _ [ Y#Z#`#c@U.I j b.W . . d 3 a+* *  $.$+$@$#$$$%$K#{ . . . _ * * * _ . ++&$*$=$. . . . . ",
". . { ! ! { . . . . g t.z.I.K.-$K#. . . * ;$|.>$^#d@U@w.m+z.. . Z+,$j+p _ I 8#'$)$!$~$C { . . . . _ _ _ _ . . T.{$]$^$. . . . . ",
". . d A A ! . . . . j A.[ /$#+@+++{ X { . X C ($R.R.l j ^.* . . ! j+e { . . %+h+U@_$B e . . . . . .     . . . . :$<$[$. . . . . ",
". . d k.k.d . . . . _ j.* !+)+'+T.~ A e { . .   ++++  . . . . . . . . . . . . . . ! C X . . . . & & % % % & . . { ! { . . . . . ",
". . { ~ ~ { . . . . . . . . . . . a.S.k.! { { . . . . . . . . . X ..~ { . . . _ _ _ _ _ . . .   % $ v v 0 $ & . . . . . . . . . ",
". . . . . . . . . . . . . . . . . 6 ,@%.x.x.3.f   . . . . . . . ~ ]@]@d . . _ * : j : * _ . .   $ / w }$z ^ % . . . . . . . . . ",
". . . .   W * D * * _ . . . . . . . f |#E+w#E+D+* . . . . . . . 6 $+$+6 . _ * j b+/.b.: _ d Z+K#v w h.|$1$z@$ . . . . ] 6 6 ] . ",
". . . _ H j b.b+b.j * _ . . . . . { 3.E+i t.2$w#D _ . . . . . . . 6 6 . . _ : b.w.i i j.* ,@3$9.v 4$|$5$6$7$$ . . { ! ..Q s.J ] ",
". . _ * j.[ w.t.t.[ u._ . . . . . { : 1#t.H.8$9$u._ . . . . . . . . . . . _ * b.w.0$i < * a+1.p 0 c a$5@b$c$8.. . 6 ..d$e$d$Q 6 ",
". . _ : 1#H.t.C+C+w.< <#. . . . . _ * f$t.8$B.g$: _ . . _ _ _ _ . . . . . f N h$[ /.z.j * _ . & $ ^ p.7$i$Z@T.. { '.o j$k$l$o@'.",
"] ] 8 j [ H.t.H.C+w.m$,@! . . . . . * j $.w./.< * _ _ _ * * * * _ . . . . d v.m.~.j j : _ . ! d   % $ y.$#T.. . ] '.q.n$o$p$q$'.",
"..J p 3.< i p#w.i w#Z r$C . . . . . 8.s$- g : H _ . t$u$v$[ b+} : * . . . d k.j+'@* * _ _ { 3 Y ..  . . . . . . { '.M w$x$y$z$6 ",
"A$A$..3.u.j.b.b.g u.0.Z+6 . . . . . U.N+B$k * _ . _ C$F#D$B.8$^.< * . . . { ~ ~ _ _ _ . . { Z+J+e . . . . . . . . 6 ..r E$F$G$] ",
"H$~@M 7 8 W H * _   . . . . . . . . Q.#+@+++. . . _ I$J$K$R@L$R@[ : . . . . . . . . . . . . ! e 8.N.v+T.. . . . . . ] 6 M$u@K#. ",
"N$~@M '.]       . . . . . . . . . . !+)+'+T.. . . _ - D.O$P$P$Q$b+* . . . . . . . . . . . . . . N.@+N+N.. . . . . . . . . . . . ",
"d$q.Q 4+] . . . . . . . . . . . . . . . . . . . . . : b.^.R$t./.j.* . . . . . . . . . . . . . . N.O.O.N.. . . . . . . . . . . . ",
"Q s.J 6 { . . . . . . . . . . . . . . . . . . . . . _ : j < j.j * . . . . . . . . . . . . . . . T.U.U.T.. . . . . . . . . . . . "};
